<?xml version="1.0" encoding="UTF-8" standalone="no"?>
<!DOCTYPE svg PUBLIC "-//W3C//DTD SVG 1.1//EN"
 "http://www.w3.org/Graphics/SVG/1.1/DTD/svg11.dtd">
<!-- Generated by graphviz version 2.43.0 (0)
 -->
<!-- Title: ifm3d::Device Pages: 1 -->
<svg width="238pt" height="140pt"
 viewBox="0.00 0.00 237.50 140.00" xmlns="http://www.w3.org/2000/svg" xmlns:xlink="http://www.w3.org/1999/xlink">
<g id="graph0" class="graph" transform="scale(1 1) rotate(0) translate(4 136)">
<title>ifm3d::Device</title>
<!-- Node1 -->
<g id="node1" class="node">
<title>Node1</title>
<g id="a_node1"><a xlink:title=" ">
<polygon fill="#bfbfbf" stroke="black" points="94.5,-112.5 94.5,-131.5 179.5,-131.5 179.5,-112.5 94.5,-112.5"/>
<text text-anchor="middle" x="137" y="-119.5" font-family="Helvetica,sans-Serif" font-size="10.00">ifm3d::Device</text>
</a>
</g>
</g>
<!-- Node2 -->
<g id="node2" class="node">
<title>Node2</title>
<g id="a_node2"><a xlink:href="classifm3d_1_1LegacyDevice.html" target="_top" xlink:title=" ">
<polygon fill="none" stroke="black" points="21.5,-56.5 21.5,-75.5 140.5,-75.5 140.5,-56.5 21.5,-56.5"/>
<text text-anchor="middle" x="81" y="-63.5" font-family="Helvetica,sans-Serif" font-size="10.00">ifm3d::LegacyDevice</text>
</a>
</g>
</g>
<!-- Node1&#45;&gt;Node2 -->
<g id="edge1" class="edge">
<title>Node1&#45;&gt;Node2</title>
<path fill="none" stroke="midnightblue" d="M120.67,-105.25C110.74,-95.67 98.41,-83.79 90.16,-75.83"/>
<polygon fill="midnightblue" stroke="midnightblue" points="118.37,-107.9 128,-112.32 123.23,-102.86 118.37,-107.9"/>
</g>
<!-- Node5 -->
<g id="node5" class="node">
<title>Node5</title>
<g id="a_node5"><a xlink:href="classifm3d_1_1O3R.html" target="_top" xlink:title=" ">
<polygon fill="none" stroke="black" points="158.5,-56.5 158.5,-75.5 229.5,-75.5 229.5,-56.5 158.5,-56.5"/>
<text text-anchor="middle" x="194" y="-63.5" font-family="Helvetica,sans-Serif" font-size="10.00">ifm3d::O3R</text>
</a>
</g>
</g>
<!-- Node1&#45;&gt;Node5 -->
<g id="edge4" class="edge">
<title>Node1&#45;&gt;Node5</title>
<path fill="none" stroke="midnightblue" d="M153.62,-105.25C163.73,-95.67 176.28,-83.79 184.68,-75.83"/>
<polygon fill="midnightblue" stroke="midnightblue" points="151.01,-102.91 146.16,-112.32 155.82,-107.99 151.01,-102.91"/>
</g>
<!-- Node3 -->
<g id="node3" class="node">
<title>Node3</title>
<g id="a_node3"><a xlink:href="classifm3d_1_1O3D.html" target="_top" xlink:title=" ">
<polygon fill="none" stroke="black" points="0,-0.5 0,-19.5 72,-19.5 72,-0.5 0,-0.5"/>
<text text-anchor="middle" x="36" y="-7.5" font-family="Helvetica,sans-Serif" font-size="10.00">ifm3d::O3D</text>
</a>
</g>
</g>
<!-- Node2&#45;&gt;Node3 -->
<g id="edge2" class="edge">
<title>Node2&#45;&gt;Node3</title>
<path fill="none" stroke="midnightblue" d="M66.95,-48.14C59.11,-38.74 49.67,-27.4 43.29,-19.75"/>
<polygon fill="midnightblue" stroke="midnightblue" points="64.48,-50.64 73.57,-56.08 69.86,-46.16 64.48,-50.64"/>
</g>
<!-- Node4 -->
<g id="node4" class="node">
<title>Node4</title>
<g id="a_node4"><a xlink:href="classifm3d_1_1O3X.html" target="_top" xlink:title=" ">
<polygon fill="none" stroke="black" points="90.5,-0.5 90.5,-19.5 161.5,-19.5 161.5,-0.5 90.5,-0.5"/>
<text text-anchor="middle" x="126" y="-7.5" font-family="Helvetica,sans-Serif" font-size="10.00">ifm3d::O3X</text>
</a>
</g>
</g>
<!-- Node2&#45;&gt;Node4 -->
<g id="edge3" class="edge">
<title>Node2&#45;&gt;Node4</title>
<path fill="none" stroke="midnightblue" d="M95.05,-48.14C102.89,-38.74 112.33,-27.4 118.71,-19.75"/>
<polygon fill="midnightblue" stroke="midnightblue" points="92.14,-46.16 88.43,-56.08 97.52,-50.64 92.14,-46.16"/>
</g>
</g>
</svg>
