<?xml version="1.0" encoding="UTF-8" standalone="no"?>
<!DOCTYPE svg PUBLIC "-//W3C//DTD SVG 1.1//EN"
 "http://www.w3.org/Graphics/SVG/1.1/DTD/svg11.dtd">
<!-- Generated by graphviz version 2.43.0 (0)
 -->
<!-- Title: ifm3d::LegacyDevice Pages: 1 -->
<svg width="170pt" height="140pt"
 viewBox="0.00 0.00 169.50 140.00" xmlns="http://www.w3.org/2000/svg" xmlns:xlink="http://www.w3.org/1999/xlink">
<g id="graph0" class="graph" transform="scale(1 1) rotate(0) translate(4 136)">
<title>ifm3d::LegacyDevice</title>
<!-- Node1 -->
<g id="node1" class="node">
<title>Node1</title>
<g id="a_node1"><a xlink:title=" ">
<polygon fill="#bfbfbf" stroke="black" points="21.5,-56.5 21.5,-75.5 140.5,-75.5 140.5,-56.5 21.5,-56.5"/>
<text text-anchor="middle" x="81" y="-63.5" font-family="Helvetica,sans-Serif" font-size="10.00">ifm3d::LegacyDevice</text>
</a>
</g>
</g>
<!-- Node3 -->
<g id="node3" class="node">
<title>Node3</title>
<g id="a_node3"><a xlink:href="classifm3d_1_1O3D.html" target="_top" xlink:title=" ">
<polygon fill="none" stroke="black" points="0,-0.5 0,-19.5 72,-19.5 72,-0.5 0,-0.5"/>
<text text-anchor="middle" x="36" y="-7.5" font-family="Helvetica,sans-Serif" font-size="10.00">ifm3d::O3D</text>
</a>
</g>
</g>
<!-- Node1&#45;&gt;Node3 -->
<g id="edge2" class="edge">
<title>Node1&#45;&gt;Node3</title>
<path fill="none" stroke="midnightblue" d="M66.95,-48.14C59.11,-38.74 49.67,-27.4 43.29,-19.75"/>
<polygon fill="midnightblue" stroke="midnightblue" points="64.48,-50.64 73.57,-56.08 69.86,-46.16 64.48,-50.64"/>
</g>
<!-- Node4 -->
<g id="node4" class="node">
<title>Node4</title>
<g id="a_node4"><a xlink:href="classifm3d_1_1O3X.html" target="_top" xlink:title=" ">
<polygon fill="none" stroke="black" points="90.5,-0.5 90.5,-19.5 161.5,-19.5 161.5,-0.5 90.5,-0.5"/>
<text text-anchor="middle" x="126" y="-7.5" font-family="Helvetica,sans-Serif" font-size="10.00">ifm3d::O3X</text>
</a>
</g>
</g>
<!-- Node1&#45;&gt;Node4 -->
<g id="edge3" class="edge">
<title>Node1&#45;&gt;Node4</title>
<path fill="none" stroke="midnightblue" d="M95.05,-48.14C102.89,-38.74 112.33,-27.4 118.71,-19.75"/>
<polygon fill="midnightblue" stroke="midnightblue" points="92.14,-46.16 88.43,-56.08 97.52,-50.64 92.14,-46.16"/>
</g>
<!-- Node2 -->
<g id="node2" class="node">
<title>Node2</title>
<g id="a_node2"><a xlink:href="classifm3d_1_1Device.html" target="_top" xlink:title=" ">
<polygon fill="none" stroke="black" points="38.5,-112.5 38.5,-131.5 123.5,-131.5 123.5,-112.5 38.5,-112.5"/>
<text text-anchor="middle" x="81" y="-119.5" font-family="Helvetica,sans-Serif" font-size="10.00">ifm3d::Device</text>
</a>
</g>
</g>
<!-- Node2&#45;&gt;Node1 -->
<g id="edge1" class="edge">
<title>Node2&#45;&gt;Node1</title>
<path fill="none" stroke="midnightblue" d="M81,-101.8C81,-92.91 81,-82.78 81,-75.75"/>
<polygon fill="midnightblue" stroke="midnightblue" points="77.5,-102.08 81,-112.08 84.5,-102.08 77.5,-102.08"/>
</g>
</g>
</svg>
