<?xml version="1.0" encoding="UTF-8" standalone="no"?>
<!DOCTYPE svg PUBLIC "-//W3C//DTD SVG 1.1//EN"
 "http://www.w3.org/Graphics/SVG/1.1/DTD/svg11.dtd">
<!-- Generated by graphviz version 2.43.0 (0)
 -->
<!-- Title: ifm3d::LogWriterConsoleColored&lt; Formatter, &gt; Pages: 1 -->
<svg width="183pt" height="162pt"
 viewBox="0.00 0.00 183.00 162.00" xmlns="http://www.w3.org/2000/svg" xmlns:xlink="http://www.w3.org/1999/xlink">
<g id="graph0" class="graph" transform="scale(1 1) rotate(0) translate(4 158)">
<title>ifm3d::LogWriterConsoleColored&lt; Formatter, &gt;</title>
<!-- Node1 -->
<g id="node1" class="node">
<title>Node1</title>
<g id="a_node1"><a xlink:title=" ">
<polygon fill="#bfbfbf" stroke="black" points="0,-0.5 0,-30.5 175,-30.5 175,-0.5 0,-0.5"/>
<text text-anchor="start" x="8" y="-18.5" font-family="Helvetica,sans-Serif" font-size="10.00">ifm3d::LogWriterConsoleColored</text>
<text text-anchor="middle" x="87.5" y="-7.5" font-family="Helvetica,sans-Serif" font-size="10.00">&lt; Formatter, &gt;</text>
</a>
</g>
</g>
<!-- Node2 -->
<g id="node2" class="node">
<title>Node2</title>
<g id="a_node2"><a xlink:href="classifm3d_1_1LogWriterConsole.html" target="_top" xlink:title=" ">
<polygon fill="none" stroke="black" points="19,-67.5 19,-97.5 156,-97.5 156,-67.5 19,-67.5"/>
<text text-anchor="start" x="27" y="-85.5" font-family="Helvetica,sans-Serif" font-size="10.00">ifm3d::LogWriterConsole</text>
<text text-anchor="middle" x="87.5" y="-74.5" font-family="Helvetica,sans-Serif" font-size="10.00">&lt; Formatter &gt;</text>
</a>
</g>
</g>
<!-- Node2&#45;&gt;Node1 -->
<g id="edge1" class="edge">
<title>Node2&#45;&gt;Node1</title>
<path fill="none" stroke="midnightblue" d="M87.5,-57.11C87.5,-48.15 87.5,-38.32 87.5,-30.58"/>
<polygon fill="midnightblue" stroke="midnightblue" points="84,-57.4 87.5,-67.4 91,-57.4 84,-57.4"/>
</g>
<!-- Node3 -->
<g id="node3" class="node">
<title>Node3</title>
<g id="a_node3"><a xlink:href="classifm3d_1_1LogWriter.html" target="_top" xlink:title=" ">
<polygon fill="none" stroke="black" points="38.5,-134.5 38.5,-153.5 136.5,-153.5 136.5,-134.5 38.5,-134.5"/>
<text text-anchor="middle" x="87.5" y="-141.5" font-family="Helvetica,sans-Serif" font-size="10.00">ifm3d::LogWriter</text>
</a>
</g>
</g>
<!-- Node3&#45;&gt;Node2 -->
<g id="edge2" class="edge">
<title>Node3&#45;&gt;Node2</title>
<path fill="none" stroke="midnightblue" d="M87.5,-124.23C87.5,-115.59 87.5,-105.5 87.5,-97.52"/>
<polygon fill="midnightblue" stroke="midnightblue" points="84,-124.48 87.5,-134.48 91,-124.48 84,-124.48"/>
</g>
</g>
</svg>
