<?xml version="1.0" encoding="UTF-8" standalone="no"?>
<!DOCTYPE svg PUBLIC "-//W3C//DTD SVG 1.1//EN"
 "http://www.w3.org/Graphics/SVG/1.1/DTD/svg11.dtd">
<!-- Generated by graphviz version 2.43.0 (0)
 -->
<!-- Title: Graphical Class Hierarchy Pages: 1 -->
<svg width="356pt" height="85pt"
 viewBox="0.00 0.00 356.00 85.00" xmlns="http://www.w3.org/2000/svg" xmlns:xlink="http://www.w3.org/1999/xlink">
<g id="graph0" class="graph" transform="scale(1 1) rotate(0) translate(4 81)">
<title>Graphical Class Hierarchy</title>
<!-- Node0 -->
<g id="node1" class="node">
<title>Node0</title>
<g id="a_node1"><a xlink:href="classifm3d_1_1Device.html" target="_top" xlink:title="Software interface to an ifm 3D device.">
<polygon fill="none" stroke="black" points="0,-19.5 0,-38.5 85,-38.5 85,-19.5 0,-19.5"/>
<text text-anchor="middle" x="42.5" y="-26.5" font-family="Helvetica,sans-Serif" font-size="10.00">ifm3d::Device</text>
</a>
</g>
</g>
<!-- Node1 -->
<g id="node2" class="node">
<title>Node1</title>
<g id="a_node2"><a xlink:href="classifm3d_1_1LegacyDevice.html" target="_top" xlink:title=" ">
<polygon fill="none" stroke="black" points="121,-38.5 121,-57.5 240,-57.5 240,-38.5 121,-38.5"/>
<text text-anchor="middle" x="180.5" y="-45.5" font-family="Helvetica,sans-Serif" font-size="10.00">ifm3d::LegacyDevice</text>
</a>
</g>
</g>
<!-- Node0&#45;&gt;Node1 -->
<g id="edge1" class="edge">
<title>Node0&#45;&gt;Node1</title>
<path fill="none" stroke="midnightblue" d="M95.05,-36.2C103.42,-37.37 112.15,-38.59 120.69,-39.78"/>
<polygon fill="midnightblue" stroke="midnightblue" points="95.43,-32.72 85.04,-34.8 94.46,-39.65 95.43,-32.72"/>
</g>
<!-- Node4 -->
<g id="node5" class="node">
<title>Node4</title>
<g id="a_node5"><a xlink:href="classifm3d_1_1O3R.html" target="_top" xlink:title="Device specialization for O3R.">
<polygon fill="none" stroke="black" points="145,-0.5 145,-19.5 216,-19.5 216,-0.5 145,-0.5"/>
<text text-anchor="middle" x="180.5" y="-7.5" font-family="Helvetica,sans-Serif" font-size="10.00">ifm3d::O3R</text>
</a>
</g>
</g>
<!-- Node0&#45;&gt;Node4 -->
<g id="edge4" class="edge">
<title>Node0&#45;&gt;Node4</title>
<path fill="none" stroke="midnightblue" d="M95.12,-21.79C111.66,-19.48 129.57,-16.98 144.62,-14.87"/>
<polygon fill="midnightblue" stroke="midnightblue" points="94.46,-18.35 85.04,-23.2 95.43,-25.28 94.46,-18.35"/>
</g>
<!-- Node2 -->
<g id="node3" class="node">
<title>Node2</title>
<g id="a_node3"><a xlink:href="classifm3d_1_1O3D.html" target="_top" xlink:title="Device specialization for O3D.">
<polygon fill="none" stroke="black" points="276,-57.5 276,-76.5 348,-76.5 348,-57.5 276,-57.5"/>
<text text-anchor="middle" x="312" y="-64.5" font-family="Helvetica,sans-Serif" font-size="10.00">ifm3d::O3D</text>
</a>
</g>
</g>
<!-- Node1&#45;&gt;Node2 -->
<g id="edge2" class="edge">
<title>Node1&#45;&gt;Node2</title>
<path fill="none" stroke="midnightblue" d="M250.21,-58.08C259.08,-59.38 267.85,-60.67 275.85,-61.84"/>
<polygon fill="midnightblue" stroke="midnightblue" points="250.59,-54.6 240.19,-56.61 249.57,-61.53 250.59,-54.6"/>
</g>
<!-- Node3 -->
<g id="node4" class="node">
<title>Node3</title>
<g id="a_node4"><a xlink:href="classifm3d_1_1O3X.html" target="_top" xlink:title="Device specialization for O3X.">
<polygon fill="none" stroke="black" points="276.5,-19.5 276.5,-38.5 347.5,-38.5 347.5,-19.5 276.5,-19.5"/>
<text text-anchor="middle" x="312" y="-26.5" font-family="Helvetica,sans-Serif" font-size="10.00">ifm3d::O3X</text>
</a>
</g>
</g>
<!-- Node1&#45;&gt;Node3 -->
<g id="edge3" class="edge">
<title>Node1&#45;&gt;Node3</title>
<path fill="none" stroke="midnightblue" d="M250.32,-37.9C259.28,-36.59 268.15,-35.29 276.21,-34.1"/>
<polygon fill="midnightblue" stroke="midnightblue" points="249.57,-34.47 240.19,-39.39 250.59,-41.4 249.57,-34.47"/>
</g>
</g>
</svg>
