<?xml version="1.0" encoding="UTF-8" standalone="no"?>
<!DOCTYPE svg PUBLIC "-//W3C//DTD SVG 1.1//EN"
 "http://www.w3.org/Graphics/SVG/1.1/DTD/svg11.dtd">
<!-- Generated by graphviz version 2.43.0 (0)
 -->
<!-- Title: Graphical Class Hierarchy Pages: 1 -->
<svg width="504pt" height="176pt"
 viewBox="0.00 0.00 504.00 175.50" xmlns="http://www.w3.org/2000/svg" xmlns:xlink="http://www.w3.org/1999/xlink">
<g id="graph0" class="graph" transform="scale(1 1) rotate(0) translate(4 171.5)">
<title>Graphical Class Hierarchy</title>
<!-- Node0 -->
<g id="node1" class="node">
<title>Node0</title>
<g id="a_node1"><a xlink:href="classifm3d_1_1LogWriter.html" target="_top" xlink:title=" ">
<polygon fill="none" stroke="black" points="0,-79 0,-98 98,-98 98,-79 0,-79"/>
<text text-anchor="middle" x="49" y="-86" font-family="Helvetica,sans-Serif" font-size="10.00">ifm3d::LogWriter</text>
</a>
</g>
</g>
<!-- Node1 -->
<g id="node2" class="node">
<title>Node1</title>
<g id="a_node2"><a xlink:href="classifm3d_1_1LogWriterComposite.html" target="_top" xlink:title=" ">
<polygon fill="none" stroke="black" points="134,-148 134,-167 285,-167 285,-148 134,-148"/>
<text text-anchor="middle" x="209.5" y="-155" font-family="Helvetica,sans-Serif" font-size="10.00">ifm3d::LogWriterComposite</text>
</a>
</g>
</g>
<!-- Node0&#45;&gt;Node1 -->
<g id="edge1" class="edge">
<title>Node0&#45;&gt;Node1</title>
<path fill="none" stroke="midnightblue" d="M71.69,-103.78C88.13,-114.77 111.65,-129.23 134,-138.5 143,-142.23 152.93,-145.38 162.52,-147.98"/>
<polygon fill="midnightblue" stroke="midnightblue" points="73.57,-100.83 63.33,-98.09 69.63,-106.61 73.57,-100.83"/>
</g>
<!-- Node2 -->
<g id="node3" class="node">
<title>Node2</title>
<g id="a_node3"><a xlink:href="classifm3d_1_1LogWriterConsole.html" target="_top" xlink:title=" ">
<polygon fill="none" stroke="black" points="141,-98.5 141,-128.5 278,-128.5 278,-98.5 141,-98.5"/>
<text text-anchor="start" x="149" y="-116.5" font-family="Helvetica,sans-Serif" font-size="10.00">ifm3d::LogWriterConsole</text>
<text text-anchor="middle" x="209.5" y="-105.5" font-family="Helvetica,sans-Serif" font-size="10.00">&lt; Formatter, &gt;</text>
</a>
</g>
</g>
<!-- Node0&#45;&gt;Node2 -->
<g id="edge2" class="edge">
<title>Node0&#45;&gt;Node2</title>
<path fill="none" stroke="midnightblue" d="M108.36,-97.7C118.92,-99.37 130.03,-101.12 140.83,-102.83"/>
<polygon fill="midnightblue" stroke="midnightblue" points="108.84,-94.24 98.42,-96.14 107.75,-101.15 108.84,-94.24"/>
</g>
<!-- Node3 -->
<g id="node4" class="node">
<title>Node3</title>
<g id="a_node4"><a xlink:href="classifm3d_1_1LogWriterFile.html" target="_top" xlink:title=" ">
<polygon fill="none" stroke="black" points="151.5,-49.5 151.5,-79.5 267.5,-79.5 267.5,-49.5 151.5,-49.5"/>
<text text-anchor="start" x="159.5" y="-67.5" font-family="Helvetica,sans-Serif" font-size="10.00">ifm3d::LogWriterFile</text>
<text text-anchor="middle" x="209.5" y="-56.5" font-family="Helvetica,sans-Serif" font-size="10.00">&lt; Formatter &gt;</text>
</a>
</g>
</g>
<!-- Node0&#45;&gt;Node3 -->
<g id="edge3" class="edge">
<title>Node0&#45;&gt;Node3</title>
<path fill="none" stroke="midnightblue" d="M108.45,-79.65C122.5,-77.52 137.49,-75.25 151.47,-73.13"/>
<polygon fill="midnightblue" stroke="midnightblue" points="107.78,-76.21 98.42,-81.17 108.83,-83.13 107.78,-76.21"/>
</g>
<!-- Node4 -->
<g id="node5" class="node">
<title>Node4</title>
<g id="a_node5"><a xlink:href="classifm3d_1_1LogWriterConsole.html" target="_top" xlink:title=" ">
<polygon fill="none" stroke="black" points="141,-0.5 141,-30.5 278,-30.5 278,-0.5 141,-0.5"/>
<text text-anchor="start" x="149" y="-18.5" font-family="Helvetica,sans-Serif" font-size="10.00">ifm3d::LogWriterConsole</text>
<text text-anchor="middle" x="209.5" y="-7.5" font-family="Helvetica,sans-Serif" font-size="10.00">&lt; Formatter &gt;</text>
</a>
</g>
</g>
<!-- Node0&#45;&gt;Node4 -->
<g id="edge4" class="edge">
<title>Node0&#45;&gt;Node4</title>
<path fill="none" stroke="midnightblue" d="M73.63,-73.34C90.12,-63.18 112.86,-49.98 134,-40.5 141.97,-36.93 150.61,-33.58 159.09,-30.57"/>
<polygon fill="midnightblue" stroke="midnightblue" points="71.33,-70.64 64.71,-78.91 75.04,-76.58 71.33,-70.64"/>
</g>
<!-- Node5 -->
<g id="node6" class="node">
<title>Node5</title>
<g id="a_node6"><a xlink:href="classifm3d_1_1LogWriterConsoleColored.html" target="_top" xlink:title=" ">
<polygon fill="none" stroke="black" points="321,-0.5 321,-30.5 496,-30.5 496,-0.5 321,-0.5"/>
<text text-anchor="start" x="329" y="-18.5" font-family="Helvetica,sans-Serif" font-size="10.00">ifm3d::LogWriterConsoleColored</text>
<text text-anchor="middle" x="408.5" y="-7.5" font-family="Helvetica,sans-Serif" font-size="10.00">&lt; Formatter, &gt;</text>
</a>
</g>
</g>
<!-- Node4&#45;&gt;Node5 -->
<g id="edge5" class="edge">
<title>Node4&#45;&gt;Node5</title>
<path fill="none" stroke="midnightblue" d="M288.2,-15.5C298.94,-15.5 310.03,-15.5 320.92,-15.5"/>
<polygon fill="midnightblue" stroke="midnightblue" points="288.02,-12 278.02,-15.5 288.02,-19 288.02,-12"/>
</g>
</g>
</svg>
