<?xml version="1.0" encoding="UTF-8" standalone="no"?>
<!DOCTYPE svg PUBLIC "-//W3C//DTD SVG 1.1//EN"
 "http://www.w3.org/Graphics/SVG/1.1/DTD/svg11.dtd">
<!-- Generated by graphviz version 2.43.0 (0)
 -->
<!-- Title: Graphical Class Hierarchy Pages: 1 -->
<svg width="504pt" height="127pt"
 viewBox="0.00 0.00 504.00 126.50" xmlns="http://www.w3.org/2000/svg" xmlns:xlink="http://www.w3.org/1999/xlink">
<g id="graph0" class="graph" transform="scale(1 1) rotate(0) translate(4 122.5)">
<title>Graphical Class Hierarchy</title>
<!-- Node0 -->
<g id="node1" class="node">
<title>Node0</title>
<g id="a_node1"><a xlink:href="classifm3d_1_1LogWriter.html" target="_top" xlink:title=" ">
<polygon fill="none" stroke="black" points="0,-55 0,-74 98,-74 98,-55 0,-55"/>
<text text-anchor="middle" x="49" y="-62" font-family="Helvetica,sans-Serif" font-size="10.00">ifm3d::LogWriter</text>
</a>
</g>
</g>
<!-- Node1 -->
<g id="node2" class="node">
<title>Node1</title>
<g id="a_node2"><a xlink:href="classifm3d_1_1LogWriterComposite.html" target="_top" xlink:title=" ">
<polygon fill="none" stroke="black" points="134,-99 134,-118 285,-118 285,-99 134,-99"/>
<text text-anchor="middle" x="209.5" y="-106" font-family="Helvetica,sans-Serif" font-size="10.00">ifm3d::LogWriterComposite</text>
</a>
</g>
</g>
<!-- Node0&#45;&gt;Node1 -->
<g id="edge1" class="edge">
<title>Node0&#45;&gt;Node1</title>
<path fill="none" stroke="midnightblue" d="M90.68,-76.96C104.41,-81.07 119.84,-85.59 134,-89.5 145.58,-92.7 158.23,-96 169.76,-98.93"/>
<polygon fill="midnightblue" stroke="midnightblue" points="91.62,-73.59 81.03,-74.05 89.6,-80.29 91.62,-73.59"/>
</g>
<!-- Node2 -->
<g id="node3" class="node">
<title>Node2</title>
<g id="a_node3"><a xlink:href="classifm3d_1_1LogWriterConsole.html" target="_top" xlink:title=" ">
<polygon fill="none" stroke="black" points="141,-49.5 141,-79.5 278,-79.5 278,-49.5 141,-49.5"/>
<text text-anchor="start" x="149" y="-67.5" font-family="Helvetica,sans-Serif" font-size="10.00">ifm3d::LogWriterConsole</text>
<text text-anchor="middle" x="209.5" y="-56.5" font-family="Helvetica,sans-Serif" font-size="10.00">&lt; FORMATTER, &gt;</text>
</a>
</g>
</g>
<!-- Node0&#45;&gt;Node2 -->
<g id="edge2" class="edge">
<title>Node0&#45;&gt;Node2</title>
<path fill="none" stroke="midnightblue" d="M108.68,-64.5C119.15,-64.5 130.14,-64.5 140.83,-64.5"/>
<polygon fill="midnightblue" stroke="midnightblue" points="108.42,-61 98.42,-64.5 108.42,-68 108.42,-61"/>
</g>
<!-- Node4 -->
<g id="node5" class="node">
<title>Node4</title>
<g id="a_node5"><a xlink:href="classifm3d_1_1LogWriterFile.html" target="_top" xlink:title=" ">
<polygon fill="none" stroke="black" points="151.5,-0.5 151.5,-30.5 267.5,-30.5 267.5,-0.5 151.5,-0.5"/>
<text text-anchor="start" x="159.5" y="-18.5" font-family="Helvetica,sans-Serif" font-size="10.00">ifm3d::LogWriterFile</text>
<text text-anchor="middle" x="209.5" y="-7.5" font-family="Helvetica,sans-Serif" font-size="10.00">&lt; FORMATTER &gt;</text>
</a>
</g>
</g>
<!-- Node0&#45;&gt;Node4 -->
<g id="edge4" class="edge">
<title>Node0&#45;&gt;Node4</title>
<path fill="none" stroke="midnightblue" d="M90.57,-51.96C111.69,-45.43 137.67,-37.4 159.86,-30.54"/>
<polygon fill="midnightblue" stroke="midnightblue" points="89.46,-48.64 80.94,-54.94 91.52,-55.33 89.46,-48.64"/>
</g>
<!-- Node3 -->
<g id="node4" class="node">
<title>Node3</title>
<g id="a_node4"><a xlink:href="classifm3d_1_1LogWriterConsoleColored.html" target="_top" xlink:title=" ">
<polygon fill="none" stroke="black" points="321,-49.5 321,-79.5 496,-79.5 496,-49.5 321,-49.5"/>
<text text-anchor="start" x="329" y="-67.5" font-family="Helvetica,sans-Serif" font-size="10.00">ifm3d::LogWriterConsoleColored</text>
<text text-anchor="middle" x="408.5" y="-56.5" font-family="Helvetica,sans-Serif" font-size="10.00">&lt; FORMATTER, &gt;</text>
</a>
</g>
</g>
<!-- Node2&#45;&gt;Node3 -->
<g id="edge3" class="edge">
<title>Node2&#45;&gt;Node3</title>
<path fill="none" stroke="midnightblue" d="M288.2,-64.5C298.94,-64.5 310.03,-64.5 320.92,-64.5"/>
<polygon fill="midnightblue" stroke="midnightblue" points="288.02,-61 278.02,-64.5 288.02,-68 288.02,-61"/>
</g>
</g>
</svg>
