<?xml version="1.0" encoding="UTF-8" standalone="no"?>
<!DOCTYPE svg PUBLIC "-//W3C//DTD SVG 1.1//EN"
 "http://www.w3.org/Graphics/SVG/1.1/DTD/svg11.dtd">
<!-- Generated by graphviz version 2.43.0 (0)
 -->
<!-- Title: Graphical Class Hierarchy Pages: 1 -->
<svg width="356pt" height="104pt"
 viewBox="0.00 0.00 356.00 104.00" xmlns="http://www.w3.org/2000/svg" xmlns:xlink="http://www.w3.org/1999/xlink">
<g id="graph0" class="graph" transform="scale(1 1) rotate(0) translate(4 100)">
<title>Graphical Class Hierarchy</title>
<!-- Node0 -->
<g id="node1" class="node">
<title>Node0</title>
<g id="a_node1"><a xlink:href="classifm3d_1_1Device.html" target="_top" xlink:title="Software interface to an ifm 3D device.">
<polygon fill="none" stroke="black" points="0,-19.5 0,-38.5 85,-38.5 85,-19.5 0,-19.5"/>
<text text-anchor="middle" x="42.5" y="-26.5" font-family="Helvetica,sans-Serif" font-size="10.00">ifm3d::Device</text>
</a>
</g>
</g>
<!-- Node1 -->
<g id="node2" class="node">
<title>Node1</title>
<g id="a_node2"><a xlink:href="classifm3d_1_1LegacyDevice.html" target="_top" xlink:title=" ">
<polygon fill="none" stroke="black" points="121,-38.5 121,-57.5 240,-57.5 240,-38.5 121,-38.5"/>
<text text-anchor="middle" x="180.5" y="-45.5" font-family="Helvetica,sans-Serif" font-size="10.00">ifm3d::LegacyDevice</text>
</a>
</g>
</g>
<!-- Node0&#45;&gt;Node1 -->
<g id="edge1" class="edge">
<title>Node0&#45;&gt;Node1</title>
<path fill="none" stroke="midnightblue" d="M95.05,-36.2C103.42,-37.37 112.15,-38.59 120.69,-39.78"/>
<polygon fill="midnightblue" stroke="midnightblue" points="95.43,-32.72 85.04,-34.8 94.46,-39.65 95.43,-32.72"/>
</g>
<!-- Node4 -->
<g id="node5" class="node">
<title>Node4</title>
<g id="a_node5"><a xlink:href="classifm3d_1_1O3R.html" target="_top" xlink:title="Device specialization for O3R.">
<polygon fill="none" stroke="black" points="145,-0.5 145,-19.5 216,-19.5 216,-0.5 145,-0.5"/>
<text text-anchor="middle" x="180.5" y="-7.5" font-family="Helvetica,sans-Serif" font-size="10.00">ifm3d::O3R</text>
</a>
</g>
</g>
<!-- Node0&#45;&gt;Node4 -->
<g id="edge4" class="edge">
<title>Node0&#45;&gt;Node4</title>
<path fill="none" stroke="midnightblue" d="M95.12,-21.79C111.66,-19.48 129.57,-16.98 144.62,-14.87"/>
<polygon fill="midnightblue" stroke="midnightblue" points="94.46,-18.35 85.04,-23.2 95.43,-25.28 94.46,-18.35"/>
</g>
<!-- Node2 -->
<g id="node3" class="node">
<title>Node2</title>
<g id="a_node3"><a xlink:href="classifm3d_1_1O3D.html" target="_top" xlink:title="Device specialization for O3D.">
<polygon fill="none" stroke="black" points="276,-76.5 276,-95.5 348,-95.5 348,-76.5 276,-76.5"/>
<text text-anchor="middle" x="312" y="-83.5" font-family="Helvetica,sans-Serif" font-size="10.00">ifm3d::O3D</text>
</a>
</g>
</g>
<!-- Node1&#45;&gt;Node2 -->
<g id="edge2" class="edge">
<title>Node1&#45;&gt;Node2</title>
<path fill="none" stroke="midnightblue" d="M224.22,-60.54C241.84,-65.7 261.92,-71.6 278.33,-76.41"/>
<polygon fill="midnightblue" stroke="midnightblue" points="224.76,-57.05 214.18,-57.59 222.79,-63.76 224.76,-57.05"/>
</g>
<!-- Node3 -->
<g id="node4" class="node">
<title>Node3</title>
<g id="a_node4"><a xlink:href="classifm3d_1_1O3X.html" target="_top" xlink:title="Device specialization for O3X.">
<polygon fill="none" stroke="black" points="276.5,-38.5 276.5,-57.5 347.5,-57.5 347.5,-38.5 276.5,-38.5"/>
<text text-anchor="middle" x="312" y="-45.5" font-family="Helvetica,sans-Serif" font-size="10.00">ifm3d::O3X</text>
</a>
</g>
</g>
<!-- Node1&#45;&gt;Node3 -->
<g id="edge3" class="edge">
<title>Node1&#45;&gt;Node3</title>
<path fill="none" stroke="midnightblue" d="M250.32,-48C259.28,-48 268.15,-48 276.21,-48"/>
<polygon fill="midnightblue" stroke="midnightblue" points="250.19,-44.5 240.19,-48 250.19,-51.5 250.19,-44.5"/>
</g>
<!-- Node5 -->
<g id="node6" class="node">
<title>Node5</title>
<g id="a_node6"><a xlink:href="classifm3d_1_1O3C.html" target="_top" xlink:title="Device specialization for O3C.">
<polygon fill="none" stroke="black" points="276.5,-0.5 276.5,-19.5 347.5,-19.5 347.5,-0.5 276.5,-0.5"/>
<text text-anchor="middle" x="312" y="-7.5" font-family="Helvetica,sans-Serif" font-size="10.00">ifm3d::O3C</text>
</a>
</g>
</g>
<!-- Node4&#45;&gt;Node5 -->
<g id="edge5" class="edge">
<title>Node4&#45;&gt;Node5</title>
<path fill="none" stroke="midnightblue" d="M226.58,-10C242.85,-10 260.95,-10 276.2,-10"/>
<polygon fill="midnightblue" stroke="midnightblue" points="226.2,-6.5 216.2,-10 226.2,-13.5 226.2,-6.5"/>
</g>
</g>
</svg>
